<svg xmlns="http://www.w3.org/2000/svg" width="100" height="206.5" viewBox="0 0 100 206.5"><path fill="#b4fff4" d="M91.2 153l-14.6-25.2c2.7-9.7 4.8-20.6 4.8-31.2 0-1.4 0-2.8-.1-4.2-1.5-28.1-11.9-38.1-19.6-46.2-3.7-3.9-6.5-7.2-8.5-11.8 0-.1-.1-.2-.1-.3a8 8 0 0 0 3.3-1.1 4.9 4.9 0 0 0 2.1-4.3l-.4-1c-.6-.6-2.5-1-5.5-1.2a19.8 19.8 0 0 1 .1-5.4c.1-1 .1-1 1.4-1.1h.3a2.3 2.3 0 0 0 1.6-1.1c.5-1.1-.2-2.3-.6-3.1v-.2l-.2-.5C53 9.7 51.9 5.9 51.9 3.9S51.3.5 50.8.2a1.1 1.1 0 0 0-1.3 0c-.2.2-1.1.7-1.1 3.7 0 1.3-.5 4.4-3.2 11.3v.6a5.3 5.3 0 0 0-.8 2.2 2.9 2.9 0 0 0 .2.9A2.1 2.1 0 0 0 46 20h.2c1.4.1 1.4.1 1.5 1.1s.2 2.3.2 3.3a7.5 7.5 0 0 1-.2 2.1c-3 .2-4.8.6-5.5 1.2l-.4 1A5 5 0 0 0 44 33a7.1 7.1 0 0 0 3.3 1.1.4.4 0 0 0-.1.3c-2 4.7-5.2 8.1-8.9 11.9-7.7 8.1-18.1 18.2-19.6 46.1-.1 1.4-.1 2.8-.1 4.2 0 10.6 2.1 21.5 4.8 31.2L8.8 153 0 206.5h10l9.3-34 15.6-13.7h.1l.5.2 1.7.6.8 4.6c.2.9.6 2.9 7.9 3.4v38.9h8.2v-38.8c7.7-.5 8.1-2.6 8.2-3.5l.8-4.6a8.5 8.5 0 0 0 1.7-.6h.4l15.5 13.6 9.3 34h10z"/></svg>